<?xml version="1.0" encoding="UTF-8"?>
<svg version="1.1" xmlns="http://www.w3.org/2000/svg" width="178" height="48">
<path d="M0 0 C0.66 0 1.32 0 2 0 C1.979375 1.258125 1.95875 2.51625 1.9375 3.8125 C2.84983806 12.19543231 9.97328726 18.40769182 16.0625 23.6875 C17.031875 24.450625 18.00125 25.21375 19 26 C25.39884565 19.89630405 29.75702043 15.42405439 30.640625 6.328125 C31 4 31 4 33.125 1.3125 C33.74375 0.879375 34.3625 0.44625 35 0 C38.59894733 2.49837638 42.08649003 4.96306712 43.91796875 9.046875 C44.45957284 13.3483104 43.37214262 15.50684597 40.765625 18.9609375 C38.41724576 21.61999562 35.92460217 24.12171997 33.39355469 26.60595703 C31.51444944 28.48572069 29.78672469 30.47836537 28.0625 32.5 C27.24652344 33.428125 27.24652344 33.428125 26.4140625 34.375 C25.23362946 35.73151974 24.08185175 37.11290697 22.9375 38.5 C20.17215152 40.64091495 18.43073767 40.3736447 15 40 C12.69140625 38.3125 12.69140625 38.3125 10.5625 36 C9.79421875 35.17757812 9.0259375 34.35515625 8.234375 33.5078125 C7.49703125 32.68023437 6.7596875 31.85265625 6 31 C5.04867188 29.94425781 5.04867188 29.94425781 4.078125 28.8671875 C2.91664647 27.55666969 1.77022114 26.23262761 0.640625 24.89453125 C-0.97268121 22.98087202 -0.97268121 22.98087202 -2.765625 21.26171875 C-5.87037435 18.10619079 -7.41954453 15.87814057 -7.6875 11.375 C-7.44831739 7.77499509 -7.01932795 7.02390562 -4.625 4.0625 C-3.75875 3.381875 -2.8925 2.70125 -2 2 C-1.34 1.34 -0.68 0.68 0 0 Z " fill="#BDF263" transform="translate(7,4)"/>
<path d="M0 0 C0.66 0 1.32 0 2 0 C3.47516321 1.65808345 4.880713 3.37846047 6.25 5.125 C8.89390152 8.45768493 11.47624385 11.57701025 14.625 14.4375 C15.40875 15.283125 16.1925 16.12875 17 17 C16.71096287 19.09747212 16.51890766 20.48109234 15 22 C11.07988357 22.07840233 9.04031737 21.9131443 6.05078125 19.2890625 C0.98010948 13.56994004 -1.43528009 9.83504154 -1 2 C-0.67 1.34 -0.34 0.68 0 0 Z " fill="#56A438" transform="translate(8,13)"/>
<path d="M0 0 C4.66666667 0 9.33333333 0 14 0 C15.7634375 -0.061875 15.7634375 -0.061875 17.5625 -0.125 C21 0 21 0 23 2 C23.1953125 5.2578125 23.1953125 5.2578125 23.125 9.125 C23.10695313 10.40632813 23.08890625 11.68765625 23.0703125 13.0078125 C23.04710938 13.99523438 23.02390625 14.98265625 23 16 C22.01 16 21.02 16 20 16 C19.93941406 15.22914062 19.87882812 14.45828125 19.81640625 13.6640625 C19.69072266 12.15972656 19.69072266 12.15972656 19.5625 10.625 C19.48128906 9.62726562 19.40007812 8.62953125 19.31640625 7.6015625 C19.15034374 5.02072387 19.15034374 5.02072387 18 3 C15.94511644 3.5882524 15.94511644 3.5882524 14 5 C13.29626983 7.64787088 13.29626983 7.64787088 13.25 10.625 C13.19328125 11.62789062 13.1365625 12.63078125 13.078125 13.6640625 C13.05234375 14.43492188 13.0265625 15.20578125 13 16 C12.01 16 11.02 16 10 16 C9.93941406 15.22914062 9.87882812 14.45828125 9.81640625 13.6640625 C9.73261719 12.66117188 9.64882812 11.65828125 9.5625 10.625 C9.48128906 9.62726562 9.40007812 8.62953125 9.31640625 7.6015625 C9.15034374 5.02072387 9.15034374 5.02072387 8 3 C6.68 3 5.36 3 4 3 C3.67 7.29 3.34 11.58 3 16 C2.01 16 1.02 16 0 16 C0 10.72 0 5.44 0 0 Z " fill="#FFFFFF" transform="translate(93,20)"/>
<path d="M0 0 C2.3125 0.125 2.3125 0.125 5 1 C6.8125 4.0625 6.8125 4.0625 8 7 C10.77000825 3.67913229 10.77000825 3.67913229 13 0 C14.65 0 16.3 0 18 0 C17.54367188 0.65226563 17.08734375 1.30453125 16.6171875 1.9765625 C12.950911 7.15677996 12.950911 7.15677996 12.375 13.1875 C12.91125 14.115625 13.4475 15.04375 14 16 C14.34546875 16.63292969 14.6909375 17.26585938 15.046875 17.91796875 C15.99225809 19.63404458 16.99197355 21.31995592 18 23 C16.35 23 14.7 23 13 23 C11.68 20.69 10.36 18.38 9 16 C8.38125 16.78375 7.7625 17.5675 7.125 18.375 C5 21 5 21 3 23 C0.875 22.625 0.875 22.625 -1 22 C-0.55527344 21.40832031 -0.11054688 20.81664063 0.34765625 20.20703125 C0.91355469 19.41683594 1.47945312 18.62664063 2.0625 17.8125 C2.63097656 17.03519531 3.19945312 16.25789063 3.78515625 15.45703125 C5.22551459 13.06595693 5.22551459 13.06595693 4.8125 10.3984375 C3.73364885 7.2137519 1.89944127 4.75725345 0 2 C0 1.34 0 0.68 0 0 Z " fill="#FFFFFF" transform="translate(144,13)"/>
<path d="M0 0 C6.0546875 -0.1953125 6.0546875 -0.1953125 8 0 C10 2 10 2 10.1953125 5.2578125 C10.16050781 7.17207031 10.16050781 7.17207031 10.125 9.125 C10.10695312 10.40632813 10.08890625 11.68765625 10.0703125 13.0078125 C10.04710937 13.99523438 10.02390625 14.98265625 10 16 C8.20866022 16.05391993 6.41686101 16.09275571 4.625 16.125 C3.62726563 16.14820312 2.62953125 16.17140625 1.6015625 16.1953125 C-1 16 -1 16 -3 14 C-3.4375 11.5625 -3.4375 11.5625 -3 9 C0.28889579 6.27491491 2.78287443 5.63853209 7 6 C6.34 5.01 5.68 4.02 5 3 C3.02 3.33 1.04 3.66 -1 4 C-0.67 2.68 -0.34 1.36 0 0 Z M6 8 C4.35 8.66 2.7 9.32 1 10 C1 10.99 1 11.98 1 13 C1.99 13.33 2.98 13.66 4 14 C4.99 13.34 5.98 12.68 7 12 C6.67 10.68 6.34 9.36 6 8 Z " fill="#FFFFFF" transform="translate(122,20)"/>
<path d="M0 0 C1.32 0 2.64 0 4 0 C4.33 3.96 4.66 7.92 5 12 C6.65 12.33 8.3 12.66 10 13 C10.33 8.71 10.66 4.42 11 0 C11.99 0 12.98 0 14 0 C14 5.28 14 10.56 14 16 C3.55756014 16.49140893 3.55756014 16.49140893 1.15625 14.375 C-0.32383583 11.33482371 -0.29727318 9.11637756 -0.1875 5.75 C-0.14689453 4.13351563 -0.14689453 4.13351563 -0.10546875 2.484375 C-0.07066406 1.66453125 -0.03585938 0.8446875 0 0 Z " fill="#FFFFFF" transform="translate(74,20)"/>
<path d="M0 0 C1.32 0 2.64 0 4 0 C4 6.93 4 13.86 4 21 C6.97 21 9.94 21 13 21 C13 21.66 13 22.32 13 23 C8.71 23 4.42 23 0 23 C0 15.41 0 7.82 0 0 Z " fill="#FFFFFF" transform="translate(59,13)"/>
<path d="M0 0 C7.10526316 4.57894737 7.10526316 4.57894737 9 7 C9 7.99 9 8.98 9 10 C8.39671875 10.03738281 7.7934375 10.07476562 7.171875 10.11328125 C1.00632228 10.56253341 1.00632228 10.56253341 -4 14 C-4.31549088 8.7418187 -3.70016294 5.53627373 -1 1 C-0.67 0.67 -0.34 0.34 0 0 Z " fill="#C5D951" transform="translate(41,4)"/>
<path d="M0 0 C2.31 1.98 4.62 3.96 7 6 C6 10 6 10 5 11 C0.61691616 10.83460061 -1.35765635 10.67528435 -4.4375 7.4375 C-4.953125 6.633125 -5.46875 5.82875 -6 5 C-4.02 3.35 -2.04 1.7 0 0 Z " fill="#76D153" transform="translate(18,24)"/>
<path d="M0 0 C0.66 0 1.32 0 2 0 C3.625 2 3.625 2 5 4 C4.25 5.9375 4.25 5.9375 3 8 C0.875 8.75 0.875 8.75 -1 9 C-1.125 2.25 -1.125 2.25 0 0 Z " fill="#468929" transform="translate(8,13)"/>
<path d="M0 0 C0.99 0.33 1.98 0.66 3 1 C1.84826645 3.46800047 0.95216435 5.04783565 -1 7 C-1.99 7 -2.98 7 -4 7 C-4.33 6.01 -4.66 5.02 -5 4 C-2.6875 1.9375 -2.6875 1.9375 0 0 Z " fill="#65BB44" transform="translate(15,22)"/>
<path d="M0 0 C2.475 0.495 2.475 0.495 5 1 C3.63016497 4.16115776 3.0109362 4.9927092 0 7 C0 4.69 0 2.38 0 0 Z " fill="#95A439" transform="translate(37,11)"/>
<path d="M0 0 C2.9375 1.1875 2.9375 1.1875 6 3 C6.875 5.6875 6.875 5.6875 7 8 C5.8274869 7.04882866 4.66212985 6.08882991 3.5 5.125 C2.8503125 4.59132813 2.200625 4.05765625 1.53125 3.5078125 C1.0259375 3.01023437 0.520625 2.51265625 0 2 C0 1.34 0 0.68 0 0 Z " fill="#99E25C" transform="translate(5,24)"/>
<path d="M0 0 C2.31 0.33 4.62 0.66 7 1 C7 1.66 7 2.32 7 3 C4.36 3 1.72 3 -1 3 C-0.67 2.01 -0.34 1.02 0 0 Z " fill="#D0E34F" transform="translate(43,11)"/>
<path d="M0 0 C1.98 1.65 3.96 3.3 6 5 C3 6 3 6 0 5 C0 3.35 0 1.7 0 0 Z " fill="#BCCF42" transform="translate(44,6)"/>
</svg>
